<?xml version="1.0" encoding="utf-8" standalone="no"?>
<!DOCTYPE svg PUBLIC "-//W3C//DTD SVG 1.1//EN"
  "http://www.w3.org/Graphics/SVG/1.1/DTD/svg11.dtd">
<!-- Created with matplotlib (http://matplotlib.org/) -->
<svg height="360pt" version="1.1" viewBox="0 0 360 360" width="360pt" xmlns="http://www.w3.org/2000/svg" xmlns:xlink="http://www.w3.org/1999/xlink">
 <defs>
  <style type="text/css">
*{stroke-linecap:butt;stroke-linejoin:round;}
  </style>
 </defs>
 <g id="figure_1">
  <g id="patch_1">
   <path d="M 0 360 
L 360 360 
L 360 0 
L 0 0 
z
" style="fill:#ffffff;"/>
  </g>
  <g id="axes_1">
   <g id="patch_2">
    <path d="M 55.67625 312.66 
L 342.72 312.66 
L 342.72 17.28 
L 55.67625 17.28 
z
" style="fill:#ffffff;"/>
   </g>
   <g id="matplotlib.axis_1">
    <g id="xtick_1">
     <g id="text_1">
      <!-- Noise -->
      <defs>
       <path d="M 7.625 0 
L 7.625 71.578125 
L 17.328125 71.578125 
L 54.9375 15.375 
L 54.9375 71.578125 
L 64.015625 71.578125 
L 64.015625 0 
L 54.296875 0 
L 16.703125 56.25 
L 16.703125 0 
z
" id="ArialMT-4e"/>
       <path d="M 3.328125 25.921875 
Q 3.328125 40.328125 11.328125 47.265625 
Q 18.015625 53.03125 27.640625 53.03125 
Q 38.328125 53.03125 45.109375 46.015625 
Q 51.90625 39.015625 51.90625 26.65625 
Q 51.90625 16.65625 48.90625 10.90625 
Q 45.90625 5.171875 40.15625 2 
Q 34.421875 -1.171875 27.640625 -1.171875 
Q 16.75 -1.171875 10.03125 5.8125 
Q 3.328125 12.796875 3.328125 25.921875 
z
M 12.359375 25.921875 
Q 12.359375 15.96875 16.703125 11.015625 
Q 21.046875 6.0625 27.640625 6.0625 
Q 34.1875 6.0625 38.53125 11.03125 
Q 42.875 16.015625 42.875 26.21875 
Q 42.875 35.84375 38.5 40.796875 
Q 34.125 45.75 27.640625 45.75 
Q 21.046875 45.75 16.703125 40.8125 
Q 12.359375 35.890625 12.359375 25.921875 
z
" id="ArialMT-6f"/>
       <path d="M 6.640625 61.46875 
L 6.640625 71.578125 
L 15.4375 71.578125 
L 15.4375 61.46875 
z
M 6.640625 0 
L 6.640625 51.859375 
L 15.4375 51.859375 
L 15.4375 0 
z
" id="ArialMT-69"/>
       <path d="M 3.078125 15.484375 
L 11.765625 16.84375 
Q 12.5 11.625 15.84375 8.84375 
Q 19.1875 6.0625 25.203125 6.0625 
Q 31.25 6.0625 34.171875 8.515625 
Q 37.109375 10.984375 37.109375 14.3125 
Q 37.109375 17.28125 34.515625 19 
Q 32.71875 20.171875 25.53125 21.96875 
Q 15.875 24.421875 12.140625 26.203125 
Q 8.40625 27.984375 6.46875 31.125 
Q 4.546875 34.28125 4.546875 38.09375 
Q 4.546875 41.546875 6.125 44.5 
Q 7.71875 47.46875 10.453125 49.421875 
Q 12.5 50.921875 16.03125 51.96875 
Q 19.578125 53.03125 23.640625 53.03125 
Q 29.734375 53.03125 34.34375 51.265625 
Q 38.96875 49.515625 41.15625 46.5 
Q 43.359375 43.5 44.1875 38.484375 
L 35.59375 37.3125 
Q 35.015625 41.3125 32.203125 43.546875 
Q 29.390625 45.796875 24.265625 45.796875 
Q 18.21875 45.796875 15.625 43.796875 
Q 13.03125 41.796875 13.03125 39.109375 
Q 13.03125 37.40625 14.109375 36.03125 
Q 15.1875 34.625 17.484375 33.6875 
Q 18.796875 33.203125 25.25 31.453125 
Q 34.578125 28.953125 38.25 27.359375 
Q 41.9375 25.78125 44.03125 22.75 
Q 46.140625 19.734375 46.140625 15.234375 
Q 46.140625 10.84375 43.578125 6.953125 
Q 41.015625 3.078125 36.171875 0.953125 
Q 31.34375 -1.171875 25.25 -1.171875 
Q 15.140625 -1.171875 9.84375 3.03125 
Q 4.546875 7.234375 3.078125 15.484375 
z
" id="ArialMT-73"/>
       <path d="M 42.09375 16.703125 
L 51.171875 15.578125 
Q 49.03125 7.625 43.21875 3.21875 
Q 37.40625 -1.171875 28.375 -1.171875 
Q 17 -1.171875 10.328125 5.828125 
Q 3.65625 12.84375 3.65625 25.484375 
Q 3.65625 38.578125 10.390625 45.796875 
Q 17.140625 53.03125 27.875 53.03125 
Q 38.28125 53.03125 44.875 45.953125 
Q 51.46875 38.875 51.46875 26.03125 
Q 51.46875 25.25 51.421875 23.6875 
L 12.75 23.6875 
Q 13.234375 15.140625 17.578125 10.59375 
Q 21.921875 6.0625 28.421875 6.0625 
Q 33.25 6.0625 36.671875 8.59375 
Q 40.09375 11.140625 42.09375 16.703125 
z
M 13.234375 30.90625 
L 42.1875 30.90625 
Q 41.609375 37.453125 38.875 40.71875 
Q 34.671875 45.796875 27.984375 45.796875 
Q 21.921875 45.796875 17.796875 41.75 
Q 13.671875 37.703125 13.234375 30.90625 
z
" id="ArialMT-65"/>
      </defs>
      <g style="fill:#262626;" transform="translate(113.376094 330.033594)scale(0.11 -0.11)">
       <use xlink:href="#ArialMT-4e"/>
       <use x="72.216797" xlink:href="#ArialMT-6f"/>
       <use x="127.832031" xlink:href="#ArialMT-69"/>
       <use x="150.048828" xlink:href="#ArialMT-73"/>
       <use x="200.048828" xlink:href="#ArialMT-65"/>
      </g>
     </g>
    </g>
    <g id="xtick_2">
     <g id="text_2">
      <!-- No Noise -->
      <defs>
       <path id="ArialMT-20"/>
      </defs>
      <g style="fill:#262626;" transform="translate(248.339453 330.033594)scale(0.11 -0.11)">
       <use xlink:href="#ArialMT-4e"/>
       <use x="72.216797" xlink:href="#ArialMT-6f"/>
       <use x="127.832031" xlink:href="#ArialMT-20"/>
       <use x="155.615234" xlink:href="#ArialMT-4e"/>
       <use x="227.832031" xlink:href="#ArialMT-6f"/>
       <use x="283.447266" xlink:href="#ArialMT-69"/>
       <use x="305.664062" xlink:href="#ArialMT-73"/>
       <use x="355.664062" xlink:href="#ArialMT-65"/>
      </g>
     </g>
    </g>
    <g id="text_3">
     <!-- Stimulation -->
     <defs>
      <path d="M 4.5 23 
L 13.421875 23.78125 
Q 14.0625 18.40625 16.375 14.96875 
Q 18.703125 11.53125 23.578125 9.40625 
Q 28.46875 7.28125 34.578125 7.28125 
Q 39.984375 7.28125 44.140625 8.890625 
Q 48.296875 10.5 50.3125 13.296875 
Q 52.34375 16.109375 52.34375 19.4375 
Q 52.34375 22.796875 50.390625 25.3125 
Q 48.4375 27.828125 43.953125 29.546875 
Q 41.0625 30.671875 31.203125 33.03125 
Q 21.34375 35.40625 17.390625 37.5 
Q 12.25 40.1875 9.734375 44.15625 
Q 7.234375 48.140625 7.234375 53.078125 
Q 7.234375 58.5 10.296875 63.203125 
Q 13.375 67.921875 19.28125 70.359375 
Q 25.203125 72.796875 32.421875 72.796875 
Q 40.375 72.796875 46.453125 70.234375 
Q 52.546875 67.671875 55.8125 62.6875 
Q 59.078125 57.71875 59.328125 51.421875 
L 50.25 50.734375 
Q 49.515625 57.515625 45.28125 60.984375 
Q 41.0625 64.453125 32.8125 64.453125 
Q 24.21875 64.453125 20.28125 61.296875 
Q 16.359375 58.15625 16.359375 53.71875 
Q 16.359375 49.859375 19.140625 47.359375 
Q 21.875 44.875 33.421875 42.265625 
Q 44.96875 39.65625 49.265625 37.703125 
Q 55.515625 34.8125 58.484375 30.390625 
Q 61.46875 25.984375 61.46875 20.21875 
Q 61.46875 14.5 58.203125 9.4375 
Q 54.9375 4.390625 48.796875 1.578125 
Q 42.671875 -1.21875 35.015625 -1.21875 
Q 25.296875 -1.21875 18.71875 1.609375 
Q 12.15625 4.4375 8.421875 10.125 
Q 4.6875 15.828125 4.5 23 
z
" id="ArialMT-53"/>
      <path d="M 25.78125 7.859375 
L 27.046875 0.09375 
Q 23.34375 -0.6875 20.40625 -0.6875 
Q 15.625 -0.6875 12.984375 0.828125 
Q 10.359375 2.34375 9.28125 4.8125 
Q 8.203125 7.28125 8.203125 15.1875 
L 8.203125 45.015625 
L 1.765625 45.015625 
L 1.765625 51.859375 
L 8.203125 51.859375 
L 8.203125 64.703125 
L 16.9375 69.96875 
L 16.9375 51.859375 
L 25.78125 51.859375 
L 25.78125 45.015625 
L 16.9375 45.015625 
L 16.9375 14.703125 
Q 16.9375 10.9375 17.40625 9.859375 
Q 17.875 8.796875 18.921875 8.15625 
Q 19.96875 7.515625 21.921875 7.515625 
Q 23.390625 7.515625 25.78125 7.859375 
z
" id="ArialMT-74"/>
      <path d="M 6.59375 0 
L 6.59375 51.859375 
L 14.453125 51.859375 
L 14.453125 44.578125 
Q 16.890625 48.390625 20.9375 50.703125 
Q 25 53.03125 30.171875 53.03125 
Q 35.9375 53.03125 39.625 50.640625 
Q 43.3125 48.25 44.828125 43.953125 
Q 50.984375 53.03125 60.84375 53.03125 
Q 68.5625 53.03125 72.703125 48.75 
Q 76.859375 44.484375 76.859375 35.59375 
L 76.859375 0 
L 68.109375 0 
L 68.109375 32.671875 
Q 68.109375 37.9375 67.25 40.25 
Q 66.40625 42.578125 64.15625 43.984375 
Q 61.921875 45.40625 58.890625 45.40625 
Q 53.421875 45.40625 49.796875 41.765625 
Q 46.1875 38.140625 46.1875 30.125 
L 46.1875 0 
L 37.40625 0 
L 37.40625 33.6875 
Q 37.40625 39.546875 35.25 42.46875 
Q 33.109375 45.40625 28.21875 45.40625 
Q 24.515625 45.40625 21.359375 43.453125 
Q 18.21875 41.5 16.796875 37.734375 
Q 15.375 33.984375 15.375 26.90625 
L 15.375 0 
z
" id="ArialMT-6d"/>
      <path d="M 40.578125 0 
L 40.578125 7.625 
Q 34.515625 -1.171875 24.125 -1.171875 
Q 19.53125 -1.171875 15.546875 0.578125 
Q 11.578125 2.34375 9.640625 5 
Q 7.71875 7.671875 6.9375 11.53125 
Q 6.390625 14.109375 6.390625 19.734375 
L 6.390625 51.859375 
L 15.1875 51.859375 
L 15.1875 23.09375 
Q 15.1875 16.21875 15.71875 13.8125 
Q 16.546875 10.359375 19.234375 8.375 
Q 21.921875 6.390625 25.875 6.390625 
Q 29.828125 6.390625 33.296875 8.421875 
Q 36.765625 10.453125 38.203125 13.9375 
Q 39.65625 17.4375 39.65625 24.078125 
L 39.65625 51.859375 
L 48.4375 51.859375 
L 48.4375 0 
z
" id="ArialMT-75"/>
      <path d="M 6.390625 0 
L 6.390625 71.578125 
L 15.1875 71.578125 
L 15.1875 0 
z
" id="ArialMT-6c"/>
      <path d="M 40.4375 6.390625 
Q 35.546875 2.25 31.03125 0.53125 
Q 26.515625 -1.171875 21.34375 -1.171875 
Q 12.796875 -1.171875 8.203125 3 
Q 3.609375 7.171875 3.609375 13.671875 
Q 3.609375 17.484375 5.34375 20.625 
Q 7.078125 23.78125 9.890625 25.6875 
Q 12.703125 27.59375 16.21875 28.5625 
Q 18.796875 29.25 24.03125 29.890625 
Q 34.671875 31.15625 39.703125 32.90625 
Q 39.75 34.71875 39.75 35.203125 
Q 39.75 40.578125 37.25 42.78125 
Q 33.890625 45.75 27.25 45.75 
Q 21.046875 45.75 18.09375 43.578125 
Q 15.140625 41.40625 13.71875 35.890625 
L 5.125 37.0625 
Q 6.296875 42.578125 8.984375 45.96875 
Q 11.671875 49.359375 16.75 51.1875 
Q 21.828125 53.03125 28.515625 53.03125 
Q 35.15625 53.03125 39.296875 51.46875 
Q 43.453125 49.90625 45.40625 47.53125 
Q 47.359375 45.171875 48.140625 41.546875 
Q 48.578125 39.3125 48.578125 33.453125 
L 48.578125 21.734375 
Q 48.578125 9.46875 49.140625 6.21875 
Q 49.703125 2.984375 51.375 0 
L 42.1875 0 
Q 40.828125 2.734375 40.4375 6.390625 
z
M 39.703125 26.03125 
Q 34.90625 24.078125 25.34375 22.703125 
Q 19.921875 21.921875 17.671875 20.9375 
Q 15.4375 19.96875 14.203125 18.09375 
Q 12.984375 16.21875 12.984375 13.921875 
Q 12.984375 10.40625 15.640625 8.0625 
Q 18.3125 5.71875 23.4375 5.71875 
Q 28.515625 5.71875 32.46875 7.9375 
Q 36.421875 10.15625 38.28125 14.015625 
Q 39.703125 17 39.703125 22.796875 
z
" id="ArialMT-61"/>
      <path d="M 6.59375 0 
L 6.59375 51.859375 
L 14.5 51.859375 
L 14.5 44.484375 
Q 20.21875 53.03125 31 53.03125 
Q 35.6875 53.03125 39.625 51.34375 
Q 43.5625 49.65625 45.515625 46.921875 
Q 47.46875 44.1875 48.25 40.4375 
Q 48.734375 37.984375 48.734375 31.890625 
L 48.734375 0 
L 39.9375 0 
L 39.9375 31.546875 
Q 39.9375 36.921875 38.90625 39.578125 
Q 37.890625 42.234375 35.28125 43.8125 
Q 32.671875 45.40625 29.15625 45.40625 
Q 23.53125 45.40625 19.453125 41.84375 
Q 15.375 38.28125 15.375 28.328125 
L 15.375 0 
z
" id="ArialMT-6e"/>
     </defs>
     <g style="fill:#262626;" transform="translate(169.51875 344.809219)scale(0.12 -0.12)">
      <use xlink:href="#ArialMT-53"/>
      <use x="66.699219" xlink:href="#ArialMT-74"/>
      <use x="94.482422" xlink:href="#ArialMT-69"/>
      <use x="116.699219" xlink:href="#ArialMT-6d"/>
      <use x="200" xlink:href="#ArialMT-75"/>
      <use x="255.615234" xlink:href="#ArialMT-6c"/>
      <use x="277.832031" xlink:href="#ArialMT-61"/>
      <use x="333.447266" xlink:href="#ArialMT-74"/>
      <use x="361.230469" xlink:href="#ArialMT-69"/>
      <use x="383.447266" xlink:href="#ArialMT-6f"/>
      <use x="439.0625" xlink:href="#ArialMT-6e"/>
     </g>
    </g>
   </g>
   <g id="matplotlib.axis_2">
    <g id="ytick_1">
     <g id="line2d_1">
      <path clip-path="url(#pfb926c7685)" d="M 55.67625 301.741842 
L 342.72 301.741842 
" style="fill:none;stroke:#cccccc;stroke-linecap:round;"/>
     </g>
     <g id="text_4">
      <!-- 0 -->
      <defs>
       <path d="M 4.15625 35.296875 
Q 4.15625 48 6.765625 55.734375 
Q 9.375 63.484375 14.515625 67.671875 
Q 19.671875 71.875 27.484375 71.875 
Q 33.25 71.875 37.59375 69.546875 
Q 41.9375 67.234375 44.765625 62.859375 
Q 47.609375 58.5 49.21875 52.21875 
Q 50.828125 45.953125 50.828125 35.296875 
Q 50.828125 22.703125 48.234375 14.96875 
Q 45.65625 7.234375 40.5 3 
Q 35.359375 -1.21875 27.484375 -1.21875 
Q 17.140625 -1.21875 11.234375 6.203125 
Q 4.15625 15.140625 4.15625 35.296875 
z
M 13.1875 35.296875 
Q 13.1875 17.671875 17.3125 11.828125 
Q 21.4375 6 27.484375 6 
Q 33.546875 6 37.671875 11.859375 
Q 41.796875 17.71875 41.796875 35.296875 
Q 41.796875 52.984375 37.671875 58.78125 
Q 33.546875 64.59375 27.390625 64.59375 
Q 21.34375 64.59375 17.71875 59.46875 
Q 13.1875 52.9375 13.1875 35.296875 
z
" id="ArialMT-30"/>
      </defs>
      <g style="fill:#262626;" transform="translate(40.059219 305.678638)scale(0.11 -0.11)">
       <use xlink:href="#ArialMT-30"/>
      </g>
     </g>
    </g>
    <g id="ytick_2">
     <g id="line2d_2">
      <path clip-path="url(#pfb926c7685)" d="M 55.67625 247.701247 
L 342.72 247.701247 
" style="fill:none;stroke:#cccccc;stroke-linecap:round;"/>
     </g>
     <g id="text_5">
      <!-- 20 -->
      <defs>
       <path d="M 50.34375 8.453125 
L 50.34375 0 
L 3.03125 0 
Q 2.9375 3.171875 4.046875 6.109375 
Q 5.859375 10.9375 9.828125 15.625 
Q 13.8125 20.3125 21.34375 26.46875 
Q 33.015625 36.03125 37.109375 41.625 
Q 41.21875 47.21875 41.21875 52.203125 
Q 41.21875 57.421875 37.46875 61 
Q 33.734375 64.59375 27.734375 64.59375 
Q 21.390625 64.59375 17.578125 60.78125 
Q 13.765625 56.984375 13.71875 50.25 
L 4.6875 51.171875 
Q 5.609375 61.28125 11.65625 66.578125 
Q 17.71875 71.875 27.9375 71.875 
Q 38.234375 71.875 44.234375 66.15625 
Q 50.25 60.453125 50.25 52 
Q 50.25 47.703125 48.484375 43.546875 
Q 46.734375 39.40625 42.65625 34.8125 
Q 38.578125 30.21875 29.109375 22.21875 
Q 21.1875 15.578125 18.9375 13.203125 
Q 16.703125 10.84375 15.234375 8.453125 
z
" id="ArialMT-32"/>
      </defs>
      <g style="fill:#262626;" transform="translate(33.942188 251.638044)scale(0.11 -0.11)">
       <use xlink:href="#ArialMT-32"/>
       <use x="55.615234" xlink:href="#ArialMT-30"/>
      </g>
     </g>
    </g>
    <g id="ytick_3">
     <g id="line2d_3">
      <path clip-path="url(#pfb926c7685)" d="M 55.67625 193.660652 
L 342.72 193.660652 
" style="fill:none;stroke:#cccccc;stroke-linecap:round;"/>
     </g>
     <g id="text_6">
      <!-- 40 -->
      <defs>
       <path d="M 32.328125 0 
L 32.328125 17.140625 
L 1.265625 17.140625 
L 1.265625 25.203125 
L 33.9375 71.578125 
L 41.109375 71.578125 
L 41.109375 25.203125 
L 50.78125 25.203125 
L 50.78125 17.140625 
L 41.109375 17.140625 
L 41.109375 0 
z
M 32.328125 25.203125 
L 32.328125 57.46875 
L 9.90625 25.203125 
z
" id="ArialMT-34"/>
      </defs>
      <g style="fill:#262626;" transform="translate(33.942188 197.597449)scale(0.11 -0.11)">
       <use xlink:href="#ArialMT-34"/>
       <use x="55.615234" xlink:href="#ArialMT-30"/>
      </g>
     </g>
    </g>
    <g id="ytick_4">
     <g id="line2d_4">
      <path clip-path="url(#pfb926c7685)" d="M 55.67625 139.620057 
L 342.72 139.620057 
" style="fill:none;stroke:#cccccc;stroke-linecap:round;"/>
     </g>
     <g id="text_7">
      <!-- 60 -->
      <defs>
       <path d="M 49.75 54.046875 
L 41.015625 53.375 
Q 39.84375 58.546875 37.703125 60.890625 
Q 34.125 64.65625 28.90625 64.65625 
Q 24.703125 64.65625 21.53125 62.3125 
Q 17.390625 59.28125 14.984375 53.46875 
Q 12.59375 47.65625 12.5 36.921875 
Q 15.671875 41.75 20.265625 44.09375 
Q 24.859375 46.4375 29.890625 46.4375 
Q 38.671875 46.4375 44.84375 39.96875 
Q 51.03125 33.5 51.03125 23.25 
Q 51.03125 16.5 48.125 10.71875 
Q 45.21875 4.9375 40.140625 1.859375 
Q 35.0625 -1.21875 28.609375 -1.21875 
Q 17.625 -1.21875 10.6875 6.859375 
Q 3.765625 14.9375 3.765625 33.5 
Q 3.765625 54.25 11.421875 63.671875 
Q 18.109375 71.875 29.4375 71.875 
Q 37.890625 71.875 43.28125 67.140625 
Q 48.6875 62.40625 49.75 54.046875 
z
M 13.875 23.1875 
Q 13.875 18.65625 15.796875 14.5 
Q 17.71875 10.359375 21.1875 8.171875 
Q 24.65625 6 28.46875 6 
Q 34.03125 6 38.03125 10.484375 
Q 42.046875 14.984375 42.046875 22.703125 
Q 42.046875 30.125 38.078125 34.390625 
Q 34.125 38.671875 28.125 38.671875 
Q 22.171875 38.671875 18.015625 34.390625 
Q 13.875 30.125 13.875 23.1875 
z
" id="ArialMT-36"/>
      </defs>
      <g style="fill:#262626;" transform="translate(33.942188 143.556854)scale(0.11 -0.11)">
       <use xlink:href="#ArialMT-36"/>
       <use x="55.615234" xlink:href="#ArialMT-30"/>
      </g>
     </g>
    </g>
    <g id="ytick_5">
     <g id="line2d_5">
      <path clip-path="url(#pfb926c7685)" d="M 55.67625 85.579463 
L 342.72 85.579463 
" style="fill:none;stroke:#cccccc;stroke-linecap:round;"/>
     </g>
     <g id="text_8">
      <!-- 80 -->
      <defs>
       <path d="M 17.671875 38.8125 
Q 12.203125 40.828125 9.5625 44.53125 
Q 6.9375 48.25 6.9375 53.421875 
Q 6.9375 61.234375 12.546875 66.546875 
Q 18.171875 71.875 27.484375 71.875 
Q 36.859375 71.875 42.578125 66.421875 
Q 48.296875 60.984375 48.296875 53.171875 
Q 48.296875 48.1875 45.671875 44.5 
Q 43.0625 40.828125 37.75 38.8125 
Q 44.34375 36.671875 47.78125 31.875 
Q 51.21875 27.09375 51.21875 20.453125 
Q 51.21875 11.28125 44.71875 5.03125 
Q 38.234375 -1.21875 27.640625 -1.21875 
Q 17.046875 -1.21875 10.546875 5.046875 
Q 4.046875 11.328125 4.046875 20.703125 
Q 4.046875 27.6875 7.59375 32.390625 
Q 11.140625 37.109375 17.671875 38.8125 
z
M 15.921875 53.71875 
Q 15.921875 48.640625 19.1875 45.40625 
Q 22.46875 42.1875 27.6875 42.1875 
Q 32.765625 42.1875 36.015625 45.375 
Q 39.265625 48.578125 39.265625 53.21875 
Q 39.265625 58.0625 35.90625 61.359375 
Q 32.5625 64.65625 27.59375 64.65625 
Q 22.5625 64.65625 19.234375 61.421875 
Q 15.921875 58.203125 15.921875 53.71875 
z
M 13.09375 20.65625 
Q 13.09375 16.890625 14.875 13.375 
Q 16.65625 9.859375 20.171875 7.921875 
Q 23.6875 6 27.734375 6 
Q 34.03125 6 38.125 10.046875 
Q 42.234375 14.109375 42.234375 20.359375 
Q 42.234375 26.703125 38.015625 30.859375 
Q 33.796875 35.015625 27.4375 35.015625 
Q 21.234375 35.015625 17.15625 30.90625 
Q 13.09375 26.8125 13.09375 20.65625 
z
" id="ArialMT-38"/>
      </defs>
      <g style="fill:#262626;" transform="translate(33.942188 89.51626)scale(0.11 -0.11)">
       <use xlink:href="#ArialMT-38"/>
       <use x="55.615234" xlink:href="#ArialMT-30"/>
      </g>
     </g>
    </g>
    <g id="ytick_6">
     <g id="line2d_6">
      <path clip-path="url(#pfb926c7685)" d="M 55.67625 31.538868 
L 342.72 31.538868 
" style="fill:none;stroke:#cccccc;stroke-linecap:round;"/>
     </g>
     <g id="text_9">
      <!-- 100 -->
      <defs>
       <path d="M 37.25 0 
L 28.46875 0 
L 28.46875 56 
Q 25.296875 52.984375 20.140625 49.953125 
Q 14.984375 46.921875 10.890625 45.40625 
L 10.890625 53.90625 
Q 18.265625 57.375 23.78125 62.296875 
Q 29.296875 67.234375 31.59375 71.875 
L 37.25 71.875 
z
" id="ArialMT-31"/>
      </defs>
      <g style="fill:#262626;" transform="translate(27.825156 35.475665)scale(0.11 -0.11)">
       <use xlink:href="#ArialMT-31"/>
       <use x="55.615234" xlink:href="#ArialMT-30"/>
       <use x="111.230469" xlink:href="#ArialMT-30"/>
      </g>
     </g>
    </g>
    <g id="text_10">
     <!-- Integrated Nuclear Fluorescence -->
     <defs>
      <path d="M 9.328125 0 
L 9.328125 71.578125 
L 18.796875 71.578125 
L 18.796875 0 
z
" id="ArialMT-49"/>
      <path d="M 4.984375 -4.296875 
L 13.53125 -5.5625 
Q 14.0625 -9.515625 16.5 -11.328125 
Q 19.78125 -13.765625 25.4375 -13.765625 
Q 31.546875 -13.765625 34.859375 -11.328125 
Q 38.1875 -8.890625 39.359375 -4.5 
Q 40.046875 -1.8125 39.984375 6.78125 
Q 34.234375 0 25.640625 0 
Q 14.9375 0 9.078125 7.71875 
Q 3.21875 15.4375 3.21875 26.21875 
Q 3.21875 33.640625 5.90625 39.90625 
Q 8.59375 46.1875 13.6875 49.609375 
Q 18.796875 53.03125 25.6875 53.03125 
Q 34.859375 53.03125 40.828125 45.609375 
L 40.828125 51.859375 
L 48.921875 51.859375 
L 48.921875 7.03125 
Q 48.921875 -5.078125 46.453125 -10.125 
Q 44 -15.1875 38.640625 -18.109375 
Q 33.296875 -21.046875 25.484375 -21.046875 
Q 16.21875 -21.046875 10.5 -16.875 
Q 4.78125 -12.703125 4.984375 -4.296875 
z
M 12.25 26.859375 
Q 12.25 16.65625 16.296875 11.96875 
Q 20.359375 7.28125 26.46875 7.28125 
Q 32.515625 7.28125 36.609375 11.9375 
Q 40.71875 16.609375 40.71875 26.5625 
Q 40.71875 36.078125 36.5 40.90625 
Q 32.28125 45.75 26.3125 45.75 
Q 20.453125 45.75 16.34375 40.984375 
Q 12.25 36.234375 12.25 26.859375 
z
" id="ArialMT-67"/>
      <path d="M 6.5 0 
L 6.5 51.859375 
L 14.40625 51.859375 
L 14.40625 44 
Q 17.4375 49.515625 20 51.265625 
Q 22.5625 53.03125 25.640625 53.03125 
Q 30.078125 53.03125 34.671875 50.203125 
L 31.640625 42.046875 
Q 28.421875 43.953125 25.203125 43.953125 
Q 22.3125 43.953125 20.015625 42.21875 
Q 17.71875 40.484375 16.75 37.40625 
Q 15.28125 32.71875 15.28125 27.15625 
L 15.28125 0 
z
" id="ArialMT-72"/>
      <path d="M 40.234375 0 
L 40.234375 6.546875 
Q 35.296875 -1.171875 25.734375 -1.171875 
Q 19.53125 -1.171875 14.328125 2.25 
Q 9.125 5.671875 6.265625 11.796875 
Q 3.421875 17.921875 3.421875 25.875 
Q 3.421875 33.640625 6 39.96875 
Q 8.59375 46.296875 13.765625 49.65625 
Q 18.953125 53.03125 25.34375 53.03125 
Q 30.03125 53.03125 33.6875 51.046875 
Q 37.359375 49.078125 39.65625 45.90625 
L 39.65625 71.578125 
L 48.390625 71.578125 
L 48.390625 0 
z
M 12.453125 25.875 
Q 12.453125 15.921875 16.640625 10.984375 
Q 20.84375 6.0625 26.5625 6.0625 
Q 32.328125 6.0625 36.34375 10.765625 
Q 40.375 15.484375 40.375 25.140625 
Q 40.375 35.796875 36.265625 40.765625 
Q 32.171875 45.75 26.171875 45.75 
Q 20.3125 45.75 16.375 40.96875 
Q 12.453125 36.1875 12.453125 25.875 
z
" id="ArialMT-64"/>
      <path d="M 40.4375 19 
L 49.078125 17.875 
Q 47.65625 8.9375 41.8125 3.875 
Q 35.984375 -1.171875 27.484375 -1.171875 
Q 16.84375 -1.171875 10.375 5.78125 
Q 3.90625 12.75 3.90625 25.734375 
Q 3.90625 34.125 6.6875 40.421875 
Q 9.46875 46.734375 15.15625 49.875 
Q 20.84375 53.03125 27.546875 53.03125 
Q 35.984375 53.03125 41.359375 48.75 
Q 46.734375 44.484375 48.25 36.625 
L 39.703125 35.296875 
Q 38.484375 40.53125 35.375 43.15625 
Q 32.28125 45.796875 27.875 45.796875 
Q 21.234375 45.796875 17.078125 41.03125 
Q 12.9375 36.28125 12.9375 25.984375 
Q 12.9375 15.53125 16.9375 10.796875 
Q 20.953125 6.0625 27.390625 6.0625 
Q 32.5625 6.0625 36.03125 9.234375 
Q 39.5 12.40625 40.4375 19 
z
" id="ArialMT-63"/>
      <path d="M 8.203125 0 
L 8.203125 71.578125 
L 56.5 71.578125 
L 56.5 63.140625 
L 17.671875 63.140625 
L 17.671875 40.96875 
L 51.265625 40.96875 
L 51.265625 32.515625 
L 17.671875 32.515625 
L 17.671875 0 
z
" id="ArialMT-46"/>
     </defs>
     <g style="fill:#262626;" transform="translate(21.299531 252.010313)rotate(-90)scale(0.12 -0.12)">
      <use xlink:href="#ArialMT-49"/>
      <use x="27.783203" xlink:href="#ArialMT-6e"/>
      <use x="83.398438" xlink:href="#ArialMT-74"/>
      <use x="111.181641" xlink:href="#ArialMT-65"/>
      <use x="166.796875" xlink:href="#ArialMT-67"/>
      <use x="222.412109" xlink:href="#ArialMT-72"/>
      <use x="255.712891" xlink:href="#ArialMT-61"/>
      <use x="311.328125" xlink:href="#ArialMT-74"/>
      <use x="339.111328" xlink:href="#ArialMT-65"/>
      <use x="394.726562" xlink:href="#ArialMT-64"/>
      <use x="450.341797" xlink:href="#ArialMT-20"/>
      <use x="478.125" xlink:href="#ArialMT-4e"/>
      <use x="550.341797" xlink:href="#ArialMT-75"/>
      <use x="605.957031" xlink:href="#ArialMT-63"/>
      <use x="655.957031" xlink:href="#ArialMT-6c"/>
      <use x="678.173828" xlink:href="#ArialMT-65"/>
      <use x="733.789062" xlink:href="#ArialMT-61"/>
      <use x="789.404297" xlink:href="#ArialMT-72"/>
      <use x="822.705078" xlink:href="#ArialMT-20"/>
      <use x="850.488281" xlink:href="#ArialMT-46"/>
      <use x="911.572266" xlink:href="#ArialMT-6c"/>
      <use x="933.789062" xlink:href="#ArialMT-75"/>
      <use x="989.404297" xlink:href="#ArialMT-6f"/>
      <use x="1045.019531" xlink:href="#ArialMT-72"/>
      <use x="1078.320312" xlink:href="#ArialMT-65"/>
      <use x="1133.935547" xlink:href="#ArialMT-73"/>
      <use x="1183.935547" xlink:href="#ArialMT-63"/>
      <use x="1233.935547" xlink:href="#ArialMT-65"/>
      <use x="1289.550781" xlink:href="#ArialMT-6e"/>
      <use x="1345.166016" xlink:href="#ArialMT-63"/>
      <use x="1395.166016" xlink:href="#ArialMT-65"/>
     </g>
    </g>
   </g>
   <g id="patch_3">
    <path clip-path="url(#pfb926c7685)" d="M 70.028437 276.461148 
L 184.845937 276.461148 
L 184.845937 214.753548 
L 70.028437 214.753548 
L 70.028437 276.461148 
z
" style="fill:#5875a4;stroke:#4c4c4c;stroke-linejoin:miter;stroke-width:1.5;"/>
   </g>
   <g id="patch_4">
    <path clip-path="url(#pfb926c7685)" d="M 213.550312 292.040286 
L 328.367812 292.040286 
L 328.367812 278.17419 
L 213.550312 278.17419 
L 213.550312 292.040286 
z
" style="fill:#cc8963;stroke:#4c4c4c;stroke-linejoin:miter;stroke-width:1.5;"/>
   </g>
   <g id="line2d_7">
    <path clip-path="url(#pfb926c7685)" d="M 127.437187 276.461148 
L 127.437187 294.306954 
" style="fill:none;stroke:#4c4c4c;stroke-linecap:round;stroke-width:1.5;"/>
   </g>
   <g id="line2d_8">
    <path clip-path="url(#pfb926c7685)" d="M 127.437187 214.753548 
L 127.437187 123.049317 
" style="fill:none;stroke:#4c4c4c;stroke-linecap:round;stroke-width:1.5;"/>
   </g>
   <g id="line2d_9">
    <path clip-path="url(#pfb926c7685)" d="M 98.732812 294.306954 
L 156.141562 294.306954 
" style="fill:none;stroke:#4c4c4c;stroke-linecap:round;stroke-width:1.5;"/>
   </g>
   <g id="line2d_10">
    <path clip-path="url(#pfb926c7685)" d="M 98.732812 123.049317 
L 156.141562 123.049317 
" style="fill:none;stroke:#4c4c4c;stroke-linecap:round;stroke-width:1.5;"/>
   </g>
   <g id="line2d_11">
    <defs>
     <path d="M 0 3.535534 
L 2.12132 0 
L 0 -3.535534 
L -2.12132 0 
z
" id="m1d7b64effc" style="stroke:#4c4c4c;stroke-linejoin:miter;"/>
    </defs>
    <g clip-path="url(#pfb926c7685)">
     <use style="fill:#4c4c4c;stroke:#4c4c4c;stroke-linejoin:miter;" x="127.437187" xlink:href="#m1d7b64effc" y="84.544857"/>
     <use style="fill:#4c4c4c;stroke:#4c4c4c;stroke-linejoin:miter;" x="127.437187" xlink:href="#m1d7b64effc" y="32.459967"/>
     <use style="fill:#4c4c4c;stroke:#4c4c4c;stroke-linejoin:miter;" x="127.437187" xlink:href="#m1d7b64effc" y="93.324893"/>
     <use style="fill:#4c4c4c;stroke:#4c4c4c;stroke-linejoin:miter;" x="127.437187" xlink:href="#m1d7b64effc" y="63.494079"/>
     <use style="fill:#4c4c4c;stroke:#4c4c4c;stroke-linejoin:miter;" x="127.437187" xlink:href="#m1d7b64effc" y="108.586423"/>
     <use style="fill:#4c4c4c;stroke:#4c4c4c;stroke-linejoin:miter;" x="127.437187" xlink:href="#m1d7b64effc" y="31.777728"/>
    </g>
   </g>
   <g id="line2d_12">
    <path clip-path="url(#pfb926c7685)" d="M 270.959062 292.040286 
L 270.959062 298.157963 
" style="fill:none;stroke:#4c4c4c;stroke-linecap:round;stroke-width:1.5;"/>
   </g>
   <g id="line2d_13">
    <path clip-path="url(#pfb926c7685)" d="M 270.959062 278.17419 
L 270.959062 258.619528 
" style="fill:none;stroke:#4c4c4c;stroke-linecap:round;stroke-width:1.5;"/>
   </g>
   <g id="line2d_14">
    <path clip-path="url(#pfb926c7685)" d="M 242.254687 298.157963 
L 299.663437 298.157963 
" style="fill:none;stroke:#4c4c4c;stroke-linecap:round;stroke-width:1.5;"/>
   </g>
   <g id="line2d_15">
    <path clip-path="url(#pfb926c7685)" d="M 242.254687 258.619528 
L 299.663437 258.619528 
" style="fill:none;stroke:#4c4c4c;stroke-linecap:round;stroke-width:1.5;"/>
   </g>
   <g id="line2d_16">
    <g clip-path="url(#pfb926c7685)">
     <use style="fill:#4c4c4c;stroke:#4c4c4c;stroke-linejoin:miter;" x="270.959062" xlink:href="#m1d7b64effc" y="225.961226"/>
     <use style="fill:#4c4c4c;stroke:#4c4c4c;stroke-linejoin:miter;" x="270.959062" xlink:href="#m1d7b64effc" y="223.054217"/>
     <use style="fill:#4c4c4c;stroke:#4c4c4c;stroke-linejoin:miter;" x="270.959062" xlink:href="#m1d7b64effc" y="230.777548"/>
     <use style="fill:#4c4c4c;stroke:#4c4c4c;stroke-linejoin:miter;" x="270.959062" xlink:href="#m1d7b64effc" y="207.602907"/>
     <use style="fill:#4c4c4c;stroke:#4c4c4c;stroke-linejoin:miter;" x="270.959062" xlink:href="#m1d7b64effc" y="224.21382"/>
     <use style="fill:#4c4c4c;stroke:#4c4c4c;stroke-linejoin:miter;" x="270.959062" xlink:href="#m1d7b64effc" y="225.21048"/>
     <use style="fill:#4c4c4c;stroke:#4c4c4c;stroke-linejoin:miter;" x="270.959062" xlink:href="#m1d7b64effc" y="225.372987"/>
     <use style="fill:#4c4c4c;stroke:#4c4c4c;stroke-linejoin:miter;" x="270.959062" xlink:href="#m1d7b64effc" y="118.877887"/>
     <use style="fill:#4c4c4c;stroke:#4c4c4c;stroke-linejoin:miter;" x="270.959062" xlink:href="#m1d7b64effc" y="241.28562"/>
     <use style="fill:#4c4c4c;stroke:#4c4c4c;stroke-linejoin:miter;" x="270.959062" xlink:href="#m1d7b64effc" y="255.426384"/>
     <use style="fill:#4c4c4c;stroke:#4c4c4c;stroke-linejoin:miter;" x="270.959062" xlink:href="#m1d7b64effc" y="246.495138"/>
    </g>
   </g>
   <g id="line2d_17">
    <path clip-path="url(#pfb926c7685)" d="M 70.028437 253.992115 
L 184.845937 253.992115 
" style="fill:none;stroke:#4c4c4c;stroke-linecap:round;stroke-width:1.5;"/>
   </g>
   <g id="line2d_18">
    <path clip-path="url(#pfb926c7685)" d="M 213.550312 285.57872 
L 328.367812 285.57872 
" style="fill:none;stroke:#4c4c4c;stroke-linecap:round;stroke-width:1.5;"/>
   </g>
   <g id="patch_5">
    <path d="M 55.67625 312.66 
L 55.67625 17.28 
" style="fill:none;stroke:#cccccc;stroke-linecap:square;stroke-linejoin:miter;stroke-width:1.25;"/>
   </g>
   <g id="patch_6">
    <path d="M 55.67625 312.66 
L 342.72 312.66 
" style="fill:none;stroke:#cccccc;stroke-linecap:square;stroke-linejoin:miter;stroke-width:1.25;"/>
   </g>
   <g id="PathCollection_1">
    <defs>
     <path d="M 0 1.5 
C 0.397805 1.5 0.77937 1.341951 1.06066 1.06066 
C 1.341951 0.77937 1.5 0.397805 1.5 0 
C 1.5 -0.397805 1.341951 -0.77937 1.06066 -1.06066 
C 0.77937 -1.341951 0.397805 -1.5 0 -1.5 
C -0.397805 -1.5 -0.77937 -1.341951 -1.06066 -1.06066 
C -1.341951 -0.77937 -1.5 -0.397805 -1.5 0 
C -1.5 0.397805 -1.341951 0.77937 -1.06066 1.06066 
C -0.77937 1.341951 -0.397805 1.5 0 1.5 
z
" id="C0_0_46d95e6880"/>
    </defs>
    <g clip-path="url(#pfb926c7685)">
     <use style="fill:#1a1a1a;" x="136.574485" xlink:href="#C0_0_46d95e6880" y="263.32491"/>
    </g>
    <g clip-path="url(#pfb926c7685)">
     <use style="fill:#1a1a1a;" x="91.755626" xlink:href="#C0_0_46d95e6880" y="226.180603"/>
    </g>
    <g clip-path="url(#pfb926c7685)">
     <use style="fill:#1a1a1a;" x="96.871402" xlink:href="#C0_0_46d95e6880" y="237.444903"/>
    </g>
    <g clip-path="url(#pfb926c7685)">
     <use style="fill:#1a1a1a;" x="167.110002" xlink:href="#C0_0_46d95e6880" y="270.006752"/>
    </g>
    <g clip-path="url(#pfb926c7685)">
     <use style="fill:#1a1a1a;" x="147.5601" xlink:href="#C0_0_46d95e6880" y="84.544857"/>
    </g>
    <g clip-path="url(#pfb926c7685)">
     <use style="fill:#1a1a1a;" x="95.94363" xlink:href="#C0_0_46d95e6880" y="198.220517"/>
    </g>
    <g clip-path="url(#pfb926c7685)">
     <use style="fill:#1a1a1a;" x="107.501922" xlink:href="#C0_0_46d95e6880" y="258.046772"/>
    </g>
    <g clip-path="url(#pfb926c7685)">
     <use style="fill:#1a1a1a;" x="119.117402" xlink:href="#C0_0_46d95e6880" y="198.762194"/>
    </g>
    <g clip-path="url(#pfb926c7685)">
     <use style="fill:#1a1a1a;" x="102.298474" xlink:href="#C0_0_46d95e6880" y="222.573192"/>
    </g>
    <g clip-path="url(#pfb926c7685)">
     <use style="fill:#1a1a1a;" x="111.866717" xlink:href="#C0_0_46d95e6880" y="216.780212"/>
    </g>
    <g clip-path="url(#pfb926c7685)">
     <use style="fill:#1a1a1a;" x="117.998859" xlink:href="#C0_0_46d95e6880" y="220.874827"/>
    </g>
    <g clip-path="url(#pfb926c7685)">
     <use style="fill:#1a1a1a;" x="146.442332" xlink:href="#C0_0_46d95e6880" y="288.213651"/>
    </g>
    <g clip-path="url(#pfb926c7685)">
     <use style="fill:#1a1a1a;" x="102.004946" xlink:href="#C0_0_46d95e6880" y="280.053914"/>
    </g>
    <g clip-path="url(#pfb926c7685)">
     <use style="fill:#1a1a1a;" x="104.511318" xlink:href="#C0_0_46d95e6880" y="208.803785"/>
    </g>
    <g clip-path="url(#pfb926c7685)">
     <use style="fill:#1a1a1a;" x="160.651344" xlink:href="#C0_0_46d95e6880" y="286.375291"/>
    </g>
    <g clip-path="url(#pfb926c7685)">
     <use style="fill:#1a1a1a;" x="154.005937" xlink:href="#C0_0_46d95e6880" y="281.178106"/>
    </g>
    <g clip-path="url(#pfb926c7685)">
     <use style="fill:#1a1a1a;" x="166.415717" xlink:href="#C0_0_46d95e6880" y="245.958125"/>
    </g>
    <g clip-path="url(#pfb926c7685)">
     <use style="fill:#1a1a1a;" x="159.831705" xlink:href="#C0_0_46d95e6880" y="260.024154"/>
    </g>
    <g clip-path="url(#pfb926c7685)">
     <use style="fill:#1a1a1a;" x="157.675684" xlink:href="#C0_0_46d95e6880" y="225.042913"/>
    </g>
    <g clip-path="url(#pfb926c7685)">
     <use style="fill:#1a1a1a;" x="163.041762" xlink:href="#C0_0_46d95e6880" y="180.126574"/>
    </g>
    <g clip-path="url(#pfb926c7685)">
     <use style="fill:#1a1a1a;" x="133.478368" xlink:href="#C0_0_46d95e6880" y="272.882075"/>
    </g>
    <g clip-path="url(#pfb926c7685)">
     <use style="fill:#1a1a1a;" x="105.204417" xlink:href="#C0_0_46d95e6880" y="163.455883"/>
    </g>
    <g clip-path="url(#pfb926c7685)">
     <use style="fill:#1a1a1a;" x="142.543891" xlink:href="#C0_0_46d95e6880" y="283.05723"/>
    </g>
    <g clip-path="url(#pfb926c7685)">
     <use style="fill:#1a1a1a;" x="143.719343" xlink:href="#C0_0_46d95e6880" y="246.875264"/>
    </g>
    <g clip-path="url(#pfb926c7685)">
     <use style="fill:#1a1a1a;" x="126.672557" xlink:href="#C0_0_46d95e6880" y="264.811915"/>
    </g>
    <g clip-path="url(#pfb926c7685)">
     <use style="fill:#1a1a1a;" x="156.802064" xlink:href="#C0_0_46d95e6880" y="294.306954"/>
    </g>
    <g clip-path="url(#pfb926c7685)">
     <use style="fill:#1a1a1a;" x="114.471061" xlink:href="#C0_0_46d95e6880" y="267.139406"/>
    </g>
    <g clip-path="url(#pfb926c7685)">
     <use style="fill:#1a1a1a;" x="145.376742" xlink:href="#C0_0_46d95e6880" y="231.716641"/>
    </g>
    <g clip-path="url(#pfb926c7685)">
     <use style="fill:#1a1a1a;" x="87.185244" xlink:href="#C0_0_46d95e6880" y="267.722852"/>
    </g>
    <g clip-path="url(#pfb926c7685)">
     <use style="fill:#1a1a1a;" x="152.907941" xlink:href="#C0_0_46d95e6880" y="290.215902"/>
    </g>
    <g clip-path="url(#pfb926c7685)">
     <use style="fill:#1a1a1a;" x="169.762383" xlink:href="#C0_0_46d95e6880" y="284.004007"/>
    </g>
    <g clip-path="url(#pfb926c7685)">
     <use style="fill:#1a1a1a;" x="169.681549" xlink:href="#C0_0_46d95e6880" y="212.209755"/>
    </g>
    <g clip-path="url(#pfb926c7685)">
     <use style="fill:#1a1a1a;" x="161.004811" xlink:href="#C0_0_46d95e6880" y="123.049317"/>
    </g>
    <g clip-path="url(#pfb926c7685)">
     <use style="fill:#1a1a1a;" x="162.850625" xlink:href="#C0_0_46d95e6880" y="197.894792"/>
    </g>
    <g clip-path="url(#pfb926c7685)">
     <use style="fill:#1a1a1a;" x="123.969781" xlink:href="#C0_0_46d95e6880" y="162.256082"/>
    </g>
    <g clip-path="url(#pfb926c7685)">
     <use style="fill:#1a1a1a;" x="120.895347" xlink:href="#C0_0_46d95e6880" y="189.430651"/>
    </g>
    <g clip-path="url(#pfb926c7685)">
     <use style="fill:#1a1a1a;" x="125.161548" xlink:href="#C0_0_46d95e6880" y="293.033512"/>
    </g>
    <g clip-path="url(#pfb926c7685)">
     <use style="fill:#1a1a1a;" x="145.820612" xlink:href="#C0_0_46d95e6880" y="278.59768"/>
    </g>
    <g clip-path="url(#pfb926c7685)">
     <use style="fill:#1a1a1a;" x="129.03766" xlink:href="#C0_0_46d95e6880" y="236.425845"/>
    </g>
    <g clip-path="url(#pfb926c7685)">
     <use style="fill:#1a1a1a;" x="158.563005" xlink:href="#C0_0_46d95e6880" y="125.343526"/>
    </g>
    <g clip-path="url(#pfb926c7685)">
     <use style="fill:#1a1a1a;" x="139.183915" xlink:href="#C0_0_46d95e6880" y="272.612993"/>
    </g>
    <g clip-path="url(#pfb926c7685)">
     <use style="fill:#1a1a1a;" x="109.003256" xlink:href="#C0_0_46d95e6880" y="291.409152"/>
    </g>
    <g clip-path="url(#pfb926c7685)">
     <use style="fill:#1a1a1a;" x="139.114667" xlink:href="#C0_0_46d95e6880" y="32.459967"/>
    </g>
    <g clip-path="url(#pfb926c7685)">
     <use style="fill:#1a1a1a;" x="89.115069" xlink:href="#C0_0_46d95e6880" y="193.83767"/>
    </g>
    <g clip-path="url(#pfb926c7685)">
     <use style="fill:#1a1a1a;" x="130.506695" xlink:href="#C0_0_46d95e6880" y="276.359039"/>
    </g>
    <g clip-path="url(#pfb926c7685)">
     <use style="fill:#1a1a1a;" x="114.531046" xlink:href="#C0_0_46d95e6880" y="234.173421"/>
    </g>
    <g clip-path="url(#pfb926c7685)">
     <use style="fill:#1a1a1a;" x="121.722493" xlink:href="#C0_0_46d95e6880" y="214.820418"/>
    </g>
    <g clip-path="url(#pfb926c7685)">
     <use style="fill:#1a1a1a;" x="113.693524" xlink:href="#C0_0_46d95e6880" y="267.135827"/>
    </g>
    <g clip-path="url(#pfb926c7685)">
     <use style="fill:#1a1a1a;" x="141.25549" xlink:href="#C0_0_46d95e6880" y="271.253982"/>
    </g>
    <g clip-path="url(#pfb926c7685)">
     <use style="fill:#1a1a1a;" x="89.267334" xlink:href="#C0_0_46d95e6880" y="228.236008"/>
    </g>
    <g clip-path="url(#pfb926c7685)">
     <use style="fill:#1a1a1a;" x="110.962861" xlink:href="#C0_0_46d95e6880" y="285.302941"/>
    </g>
    <g clip-path="url(#pfb926c7685)">
     <use style="fill:#1a1a1a;" x="141.380925" xlink:href="#C0_0_46d95e6880" y="242.240349"/>
    </g>
    <g clip-path="url(#pfb926c7685)">
     <use style="fill:#1a1a1a;" x="86.865281" xlink:href="#C0_0_46d95e6880" y="93.324893"/>
    </g>
    <g clip-path="url(#pfb926c7685)">
     <use style="fill:#1a1a1a;" x="144.439334" xlink:href="#C0_0_46d95e6880" y="181.579059"/>
    </g>
    <g clip-path="url(#pfb926c7685)">
     <use style="fill:#1a1a1a;" x="170.281921" xlink:href="#C0_0_46d95e6880" y="241.444782"/>
    </g>
    <g clip-path="url(#pfb926c7685)">
     <use style="fill:#1a1a1a;" x="84.988756" xlink:href="#C0_0_46d95e6880" y="274.050602"/>
    </g>
    <g clip-path="url(#pfb926c7685)">
     <use style="fill:#1a1a1a;" x="103.224354" xlink:href="#C0_0_46d95e6880" y="254.485275"/>
    </g>
    <g clip-path="url(#pfb926c7685)">
     <use style="fill:#1a1a1a;" x="159.100085" xlink:href="#C0_0_46d95e6880" y="291.426433"/>
    </g>
    <g clip-path="url(#pfb926c7685)">
     <use style="fill:#1a1a1a;" x="144.35091" xlink:href="#C0_0_46d95e6880" y="284.392183"/>
    </g>
    <g clip-path="url(#pfb926c7685)">
     <use style="fill:#1a1a1a;" x="89.872927" xlink:href="#C0_0_46d95e6880" y="246.74306"/>
    </g>
    <g clip-path="url(#pfb926c7685)">
     <use style="fill:#1a1a1a;" x="106.078373" xlink:href="#C0_0_46d95e6880" y="274.039654"/>
    </g>
    <g clip-path="url(#pfb926c7685)">
     <use style="fill:#1a1a1a;" x="151.384907" xlink:href="#C0_0_46d95e6880" y="161.567155"/>
    </g>
    <g clip-path="url(#pfb926c7685)">
     <use style="fill:#1a1a1a;" x="110.730649" xlink:href="#C0_0_46d95e6880" y="197.101435"/>
    </g>
    <g clip-path="url(#pfb926c7685)">
     <use style="fill:#1a1a1a;" x="107.485694" xlink:href="#C0_0_46d95e6880" y="290.907089"/>
    </g>
    <g clip-path="url(#pfb926c7685)">
     <use style="fill:#1a1a1a;" x="153.357886" xlink:href="#C0_0_46d95e6880" y="288.057841"/>
    </g>
    <g clip-path="url(#pfb926c7685)">
     <use style="fill:#1a1a1a;" x="161.696323" xlink:href="#C0_0_46d95e6880" y="284.548818"/>
    </g>
    <g clip-path="url(#pfb926c7685)">
     <use style="fill:#1a1a1a;" x="117.293851" xlink:href="#C0_0_46d95e6880" y="279.354176"/>
    </g>
    <g clip-path="url(#pfb926c7685)">
     <use style="fill:#1a1a1a;" x="116.634663" xlink:href="#C0_0_46d95e6880" y="175.867486"/>
    </g>
    <g clip-path="url(#pfb926c7685)">
     <use style="fill:#1a1a1a;" x="97.809526" xlink:href="#C0_0_46d95e6880" y="63.494079"/>
    </g>
    <g clip-path="url(#pfb926c7685)">
     <use style="fill:#1a1a1a;" x="116.04731" xlink:href="#C0_0_46d95e6880" y="293.4138"/>
    </g>
    <g clip-path="url(#pfb926c7685)">
     <use style="fill:#1a1a1a;" x="117.27166" xlink:href="#C0_0_46d95e6880" y="276.980617"/>
    </g>
    <g clip-path="url(#pfb926c7685)">
     <use style="fill:#1a1a1a;" x="138.715451" xlink:href="#C0_0_46d95e6880" y="253.498956"/>
    </g>
    <g clip-path="url(#pfb926c7685)">
     <use style="fill:#1a1a1a;" x="120.427427" xlink:href="#C0_0_46d95e6880" y="259.909911"/>
    </g>
    <g clip-path="url(#pfb926c7685)">
     <use style="fill:#1a1a1a;" x="107.399027" xlink:href="#C0_0_46d95e6880" y="168.696302"/>
    </g>
    <g clip-path="url(#pfb926c7685)">
     <use style="fill:#1a1a1a;" x="98.198164" xlink:href="#C0_0_46d95e6880" y="280.052877"/>
    </g>
    <g clip-path="url(#pfb926c7685)">
     <use style="fill:#1a1a1a;" x="100.040308" xlink:href="#C0_0_46d95e6880" y="108.586423"/>
    </g>
    <g clip-path="url(#pfb926c7685)">
     <use style="fill:#1a1a1a;" x="145.212652" xlink:href="#C0_0_46d95e6880" y="245.915004"/>
    </g>
    <g clip-path="url(#pfb926c7685)">
     <use style="fill:#1a1a1a;" x="106.743372" xlink:href="#C0_0_46d95e6880" y="282.033508"/>
    </g>
    <g clip-path="url(#pfb926c7685)">
     <use style="fill:#1a1a1a;" x="107.987282" xlink:href="#C0_0_46d95e6880" y="132.886811"/>
    </g>
    <g clip-path="url(#pfb926c7685)">
     <use style="fill:#1a1a1a;" x="97.372592" xlink:href="#C0_0_46d95e6880" y="266.854955"/>
    </g>
    <g clip-path="url(#pfb926c7685)">
     <use style="fill:#1a1a1a;" x="160.22168" xlink:href="#C0_0_46d95e6880" y="288.840412"/>
    </g>
    <g clip-path="url(#pfb926c7685)">
     <use style="fill:#1a1a1a;" x="169.06778" xlink:href="#C0_0_46d95e6880" y="259.75104"/>
    </g>
    <g clip-path="url(#pfb926c7685)">
     <use style="fill:#1a1a1a;" x="108.727474" xlink:href="#C0_0_46d95e6880" y="276.767475"/>
    </g>
    <g clip-path="url(#pfb926c7685)">
     <use style="fill:#1a1a1a;" x="99.077225" xlink:href="#C0_0_46d95e6880" y="251.835751"/>
    </g>
    <g clip-path="url(#pfb926c7685)">
     <use style="fill:#1a1a1a;" x="133.838798" xlink:href="#C0_0_46d95e6880" y="201.239243"/>
    </g>
    <g clip-path="url(#pfb926c7685)">
     <use style="fill:#1a1a1a;" x="97.609656" xlink:href="#C0_0_46d95e6880" y="268.598304"/>
    </g>
    <g clip-path="url(#pfb926c7685)">
     <use style="fill:#1a1a1a;" x="124.865334" xlink:href="#C0_0_46d95e6880" y="222.15435"/>
    </g>
    <g clip-path="url(#pfb926c7685)">
     <use style="fill:#1a1a1a;" x="166.218213" xlink:href="#C0_0_46d95e6880" y="268.003748"/>
    </g>
    <g clip-path="url(#pfb926c7685)">
     <use style="fill:#1a1a1a;" x="156.162314" xlink:href="#C0_0_46d95e6880" y="255.916502"/>
    </g>
    <g clip-path="url(#pfb926c7685)">
     <use style="fill:#1a1a1a;" x="144.208211" xlink:href="#C0_0_46d95e6880" y="287.165384"/>
    </g>
    <g clip-path="url(#pfb926c7685)">
     <use style="fill:#1a1a1a;" x="151.134061" xlink:href="#C0_0_46d95e6880" y="233.886281"/>
    </g>
    <g clip-path="url(#pfb926c7685)">
     <use style="fill:#1a1a1a;" x="131.639977" xlink:href="#C0_0_46d95e6880" y="281.257496"/>
    </g>
    <g clip-path="url(#pfb926c7685)">
     <use style="fill:#1a1a1a;" x="123.699686" xlink:href="#C0_0_46d95e6880" y="274.669945"/>
    </g>
    <g clip-path="url(#pfb926c7685)">
     <use style="fill:#1a1a1a;" x="167.302998" xlink:href="#C0_0_46d95e6880" y="272.461225"/>
    </g>
    <g clip-path="url(#pfb926c7685)">
     <use style="fill:#1a1a1a;" x="158.42622" xlink:href="#C0_0_46d95e6880" y="215.162784"/>
    </g>
    <g clip-path="url(#pfb926c7685)">
     <use style="fill:#1a1a1a;" x="153.560616" xlink:href="#C0_0_46d95e6880" y="220.493178"/>
    </g>
    <g clip-path="url(#pfb926c7685)">
     <use style="fill:#1a1a1a;" x="108.653683" xlink:href="#C0_0_46d95e6880" y="31.777728"/>
    </g>
    <g clip-path="url(#pfb926c7685)">
     <use style="fill:#1a1a1a;" x="85.249874" xlink:href="#C0_0_46d95e6880" y="246.731423"/>
    </g>
    <g clip-path="url(#pfb926c7685)">
     <use style="fill:#1a1a1a;" x="90.493308" xlink:href="#C0_0_46d95e6880" y="165.977405"/>
    </g>
    <g clip-path="url(#pfb926c7685)">
     <use style="fill:#1a1a1a;" x="160.717683" xlink:href="#C0_0_46d95e6880" y="266.823228"/>
    </g>
    <g clip-path="url(#pfb926c7685)">
     <use style="fill:#1a1a1a;" x="130.364325" xlink:href="#C0_0_46d95e6880" y="245.217372"/>
    </g>
    <g clip-path="url(#pfb926c7685)">
     <use style="fill:#1a1a1a;" x="144.806654" xlink:href="#C0_0_46d95e6880" y="288.908117"/>
    </g>
    <g clip-path="url(#pfb926c7685)">
     <use style="fill:#1a1a1a;" x="151.03853" xlink:href="#C0_0_46d95e6880" y="293.23015"/>
    </g>
    <g clip-path="url(#pfb926c7685)">
     <use style="fill:#1a1a1a;" x="123.136072" xlink:href="#C0_0_46d95e6880" y="224.185073"/>
    </g>
    <g clip-path="url(#pfb926c7685)">
     <use style="fill:#1a1a1a;" x="130.637764" xlink:href="#C0_0_46d95e6880" y="253.297054"/>
    </g>
    <g clip-path="url(#pfb926c7685)">
     <use style="fill:#1a1a1a;" x="123.913762" xlink:href="#C0_0_46d95e6880" y="258.044779"/>
    </g>
    <g clip-path="url(#pfb926c7685)">
     <use style="fill:#1a1a1a;" x="145.909979" xlink:href="#C0_0_46d95e6880" y="256.9852"/>
    </g>
    <g clip-path="url(#pfb926c7685)">
     <use style="fill:#1a1a1a;" x="165.114238" xlink:href="#C0_0_46d95e6880" y="200.069728"/>
    </g>
    <g clip-path="url(#pfb926c7685)">
     <use style="fill:#1a1a1a;" x="162.857485" xlink:href="#C0_0_46d95e6880" y="278.277462"/>
    </g>
    <g clip-path="url(#pfb926c7685)">
     <use style="fill:#1a1a1a;" x="136.411919" xlink:href="#C0_0_46d95e6880" y="206.41969"/>
    </g>
    <g clip-path="url(#pfb926c7685)">
     <use style="fill:#1a1a1a;" x="155.07942" xlink:href="#C0_0_46d95e6880" y="275.973236"/>
    </g>
    <g clip-path="url(#pfb926c7685)">
     <use style="fill:#1a1a1a;" x="159.331697" xlink:href="#C0_0_46d95e6880" y="257.235746"/>
    </g>
    <g clip-path="url(#pfb926c7685)">
     <use style="fill:#1a1a1a;" x="122.453733" xlink:href="#C0_0_46d95e6880" y="274.243022"/>
    </g>
    <g clip-path="url(#pfb926c7685)">
     <use style="fill:#1a1a1a;" x="119.310524" xlink:href="#C0_0_46d95e6880" y="214.55294"/>
    </g>
    <g clip-path="url(#pfb926c7685)">
     <use style="fill:#1a1a1a;" x="123.491425" xlink:href="#C0_0_46d95e6880" y="234.206144"/>
    </g>
    <g clip-path="url(#pfb926c7685)">
     <use style="fill:#1a1a1a;" x="113.096579" xlink:href="#C0_0_46d95e6880" y="251.425857"/>
    </g>
   </g>
   <g id="PathCollection_2">
    <defs>
     <path d="M 0 1.5 
C 0.397805 1.5 0.77937 1.341951 1.06066 1.06066 
C 1.341951 0.77937 1.5 0.397805 1.5 0 
C 1.5 -0.397805 1.341951 -0.77937 1.06066 -1.06066 
C 0.77937 -1.341951 0.397805 -1.5 0 -1.5 
C -0.397805 -1.5 -0.77937 -1.341951 -1.06066 -1.06066 
C -1.341951 -0.77937 -1.5 -0.397805 -1.5 0 
C -1.5 0.397805 -1.341951 0.77937 -1.06066 1.06066 
C -0.77937 1.341951 -0.397805 1.5 0 1.5 
z
" id="C1_0_6470f36361"/>
    </defs>
    <g clip-path="url(#pfb926c7685)">
     <use style="fill:#1a1a1a;" x="260.432852" xlink:href="#C1_0_6470f36361" y="289.323583"/>
    </g>
    <g clip-path="url(#pfb926c7685)">
     <use style="fill:#1a1a1a;" x="233.211064" xlink:href="#C1_0_6470f36361" y="288.668245"/>
    </g>
    <g clip-path="url(#pfb926c7685)">
     <use style="fill:#1a1a1a;" x="231.852955" xlink:href="#C1_0_6470f36361" y="288.262602"/>
    </g>
    <g clip-path="url(#pfb926c7685)">
     <use style="fill:#1a1a1a;" x="261.842448" xlink:href="#C1_0_6470f36361" y="295.223988"/>
    </g>
    <g clip-path="url(#pfb926c7685)">
     <use style="fill:#1a1a1a;" x="258.82121" xlink:href="#C1_0_6470f36361" y="287.227397"/>
    </g>
    <g clip-path="url(#pfb926c7685)">
     <use style="fill:#1a1a1a;" x="309.454765" xlink:href="#C1_0_6470f36361" y="225.961226"/>
    </g>
    <g clip-path="url(#pfb926c7685)">
     <use style="fill:#1a1a1a;" x="249.868451" xlink:href="#C1_0_6470f36361" y="290.522023"/>
    </g>
    <g clip-path="url(#pfb926c7685)">
     <use style="fill:#1a1a1a;" x="284.715007" xlink:href="#C1_0_6470f36361" y="275.046549"/>
    </g>
    <g clip-path="url(#pfb926c7685)">
     <use style="fill:#1a1a1a;" x="281.241547" xlink:href="#C1_0_6470f36361" y="294.084095"/>
    </g>
    <g clip-path="url(#pfb926c7685)">
     <use style="fill:#1a1a1a;" x="266.854454" xlink:href="#C1_0_6470f36361" y="284.62578"/>
    </g>
    <g clip-path="url(#pfb926c7685)">
     <use style="fill:#1a1a1a;" x="278.691244" xlink:href="#C1_0_6470f36361" y="285.105614"/>
    </g>
    <g clip-path="url(#pfb926c7685)">
     <use style="fill:#1a1a1a;" x="267.283793" xlink:href="#C1_0_6470f36361" y="279.110335"/>
    </g>
    <g clip-path="url(#pfb926c7685)">
     <use style="fill:#1a1a1a;" x="288.039027" xlink:href="#C1_0_6470f36361" y="292.040286"/>
    </g>
    <g clip-path="url(#pfb926c7685)">
     <use style="fill:#1a1a1a;" x="248.753831" xlink:href="#C1_0_6470f36361" y="283.970928"/>
    </g>
    <g clip-path="url(#pfb926c7685)">
     <use style="fill:#1a1a1a;" x="247.302734" xlink:href="#C1_0_6470f36361" y="223.054217"/>
    </g>
    <g clip-path="url(#pfb926c7685)">
     <use style="fill:#1a1a1a;" x="304.536913" xlink:href="#C1_0_6470f36361" y="279.084827"/>
    </g>
    <g clip-path="url(#pfb926c7685)">
     <use style="fill:#1a1a1a;" x="271.392682" xlink:href="#C1_0_6470f36361" y="280.508532"/>
    </g>
    <g clip-path="url(#pfb926c7685)">
     <use style="fill:#1a1a1a;" x="229.836422" xlink:href="#C1_0_6470f36361" y="285.190844"/>
    </g>
    <g clip-path="url(#pfb926c7685)">
     <use style="fill:#1a1a1a;" x="313.754613" xlink:href="#C1_0_6470f36361" y="291.285758"/>
    </g>
    <g clip-path="url(#pfb926c7685)">
     <use style="fill:#1a1a1a;" x="253.709063" xlink:href="#C1_0_6470f36361" y="294.504637"/>
    </g>
    <g clip-path="url(#pfb926c7685)">
     <use style="fill:#1a1a1a;" x="271.079063" xlink:href="#C1_0_6470f36361" y="288.565217"/>
    </g>
    <g clip-path="url(#pfb926c7685)">
     <use style="fill:#1a1a1a;" x="300.10619" xlink:href="#C1_0_6470f36361" y="263.672848"/>
    </g>
    <g clip-path="url(#pfb926c7685)">
     <use style="fill:#1a1a1a;" x="277.005593" xlink:href="#C1_0_6470f36361" y="294.078807"/>
    </g>
    <g clip-path="url(#pfb926c7685)">
     <use style="fill:#1a1a1a;" x="259.410893" xlink:href="#C1_0_6470f36361" y="293.519954"/>
    </g>
    <g clip-path="url(#pfb926c7685)">
     <use style="fill:#1a1a1a;" x="243.172191" xlink:href="#C1_0_6470f36361" y="282.984131"/>
    </g>
    <g clip-path="url(#pfb926c7685)">
     <use style="fill:#1a1a1a;" x="267.332477" xlink:href="#C1_0_6470f36361" y="286.536453"/>
    </g>
    <g clip-path="url(#pfb926c7685)">
     <use style="fill:#1a1a1a;" x="262.255018" xlink:href="#C1_0_6470f36361" y="279.666419"/>
    </g>
    <g clip-path="url(#pfb926c7685)">
     <use style="fill:#1a1a1a;" x="273.385426" xlink:href="#C1_0_6470f36361" y="230.777548"/>
    </g>
    <g clip-path="url(#pfb926c7685)">
     <use style="fill:#1a1a1a;" x="261.766289" xlink:href="#C1_0_6470f36361" y="289.758823"/>
    </g>
    <g clip-path="url(#pfb926c7685)">
     <use style="fill:#1a1a1a;" x="293.894938" xlink:href="#C1_0_6470f36361" y="291.100165"/>
    </g>
    <g clip-path="url(#pfb926c7685)">
     <use style="fill:#1a1a1a;" x="283.671047" xlink:href="#C1_0_6470f36361" y="207.602907"/>
    </g>
    <g clip-path="url(#pfb926c7685)">
     <use style="fill:#1a1a1a;" x="302.720132" xlink:href="#C1_0_6470f36361" y="271.326611"/>
    </g>
    <g clip-path="url(#pfb926c7685)">
     <use style="fill:#1a1a1a;" x="266.702207" xlink:href="#C1_0_6470f36361" y="294.447135"/>
    </g>
    <g clip-path="url(#pfb926c7685)">
     <use style="fill:#1a1a1a;" x="288.308749" xlink:href="#C1_0_6470f36361" y="294.783371"/>
    </g>
    <g clip-path="url(#pfb926c7685)">
     <use style="fill:#1a1a1a;" x="255.991371" xlink:href="#C1_0_6470f36361" y="289.12228"/>
    </g>
    <g clip-path="url(#pfb926c7685)">
     <use style="fill:#1a1a1a;" x="263.347608" xlink:href="#C1_0_6470f36361" y="295.619322"/>
    </g>
    <g clip-path="url(#pfb926c7685)">
     <use style="fill:#1a1a1a;" x="248.41471" xlink:href="#C1_0_6470f36361" y="287.115291"/>
    </g>
    <g clip-path="url(#pfb926c7685)">
     <use style="fill:#1a1a1a;" x="256.195859" xlink:href="#C1_0_6470f36361" y="298.157963"/>
    </g>
    <g clip-path="url(#pfb926c7685)">
     <use style="fill:#1a1a1a;" x="241.417274" xlink:href="#C1_0_6470f36361" y="284.947019"/>
    </g>
    <g clip-path="url(#pfb926c7685)">
     <use style="fill:#1a1a1a;" x="306.312431" xlink:href="#C1_0_6470f36361" y="283.234345"/>
    </g>
    <g clip-path="url(#pfb926c7685)">
     <use style="fill:#1a1a1a;" x="232.929002" xlink:href="#C1_0_6470f36361" y="280.864284"/>
    </g>
    <g clip-path="url(#pfb926c7685)">
     <use style="fill:#1a1a1a;" x="278.629279" xlink:href="#C1_0_6470f36361" y="264.15014"/>
    </g>
    <g clip-path="url(#pfb926c7685)">
     <use style="fill:#1a1a1a;" x="286.949627" xlink:href="#C1_0_6470f36361" y="281.635971"/>
    </g>
    <g clip-path="url(#pfb926c7685)">
     <use style="fill:#1a1a1a;" x="249.454859" xlink:href="#C1_0_6470f36361" y="294.585267"/>
    </g>
    <g clip-path="url(#pfb926c7685)">
     <use style="fill:#1a1a1a;" x="295.944619" xlink:href="#C1_0_6470f36361" y="277.167724"/>
    </g>
    <g clip-path="url(#pfb926c7685)">
     <use style="fill:#1a1a1a;" x="309.903389" xlink:href="#C1_0_6470f36361" y="285.57872"/>
    </g>
    <g clip-path="url(#pfb926c7685)">
     <use style="fill:#1a1a1a;" x="274.820222" xlink:href="#C1_0_6470f36361" y="294.994683"/>
    </g>
    <g clip-path="url(#pfb926c7685)">
     <use style="fill:#1a1a1a;" x="282.896309" xlink:href="#C1_0_6470f36361" y="282.750753"/>
    </g>
    <g clip-path="url(#pfb926c7685)">
     <use style="fill:#1a1a1a;" x="282.441559" xlink:href="#C1_0_6470f36361" y="295.262258"/>
    </g>
    <g clip-path="url(#pfb926c7685)">
     <use style="fill:#1a1a1a;" x="261.405871" xlink:href="#C1_0_6470f36361" y="296.855798"/>
    </g>
    <g clip-path="url(#pfb926c7685)">
     <use style="fill:#1a1a1a;" x="282.844675" xlink:href="#C1_0_6470f36361" y="284.565881"/>
    </g>
    <g clip-path="url(#pfb926c7685)">
     <use style="fill:#1a1a1a;" x="270.832287" xlink:href="#C1_0_6470f36361" y="224.21382"/>
    </g>
    <g clip-path="url(#pfb926c7685)">
     <use style="fill:#1a1a1a;" x="280.027339" xlink:href="#C1_0_6470f36361" y="289.729168"/>
    </g>
    <g clip-path="url(#pfb926c7685)">
     <use style="fill:#1a1a1a;" x="236.792378" xlink:href="#C1_0_6470f36361" y="294.27649"/>
    </g>
    <g clip-path="url(#pfb926c7685)">
     <use style="fill:#1a1a1a;" x="282.510457" xlink:href="#C1_0_6470f36361" y="258.619528"/>
    </g>
    <g clip-path="url(#pfb926c7685)">
     <use style="fill:#1a1a1a;" x="293.99258" xlink:href="#C1_0_6470f36361" y="289.806276"/>
    </g>
    <g clip-path="url(#pfb926c7685)">
     <use style="fill:#1a1a1a;" x="249.641611" xlink:href="#C1_0_6470f36361" y="225.21048"/>
    </g>
    <g clip-path="url(#pfb926c7685)">
     <use style="fill:#1a1a1a;" x="249.968124" xlink:href="#C1_0_6470f36361" y="285.83759"/>
    </g>
    <g clip-path="url(#pfb926c7685)">
     <use style="fill:#1a1a1a;" x="262.095898" xlink:href="#C1_0_6470f36361" y="225.372987"/>
    </g>
    <g clip-path="url(#pfb926c7685)">
     <use style="fill:#1a1a1a;" x="265.768807" xlink:href="#C1_0_6470f36361" y="118.877887"/>
    </g>
    <g clip-path="url(#pfb926c7685)">
     <use style="fill:#1a1a1a;" x="311.481803" xlink:href="#C1_0_6470f36361" y="284.309237"/>
    </g>
    <g clip-path="url(#pfb926c7685)">
     <use style="fill:#1a1a1a;" x="300.948411" xlink:href="#C1_0_6470f36361" y="285.722293"/>
    </g>
    <g clip-path="url(#pfb926c7685)">
     <use style="fill:#1a1a1a;" x="290.873571" xlink:href="#C1_0_6470f36361" y="278.17419"/>
    </g>
    <g clip-path="url(#pfb926c7685)">
     <use style="fill:#1a1a1a;" x="290.624072" xlink:href="#C1_0_6470f36361" y="241.28562"/>
    </g>
    <g clip-path="url(#pfb926c7685)">
     <use style="fill:#1a1a1a;" x="249.579147" xlink:href="#C1_0_6470f36361" y="255.426384"/>
    </g>
    <g clip-path="url(#pfb926c7685)">
     <use style="fill:#1a1a1a;" x="256.391486" xlink:href="#C1_0_6470f36361" y="246.495138"/>
    </g>
    <g clip-path="url(#pfb926c7685)">
     <use style="fill:#1a1a1a;" x="235.680154" xlink:href="#C1_0_6470f36361" y="285.100229"/>
    </g>
    <g clip-path="url(#pfb926c7685)">
     <use style="fill:#1a1a1a;" x="310.398364" xlink:href="#C1_0_6470f36361" y="277.89825"/>
    </g>
    <g clip-path="url(#pfb926c7685)">
     <use style="fill:#1a1a1a;" x="235.805234" xlink:href="#C1_0_6470f36361" y="269.247042"/>
    </g>
    <g clip-path="url(#pfb926c7685)">
     <use style="fill:#1a1a1a;" x="234.115837" xlink:href="#C1_0_6470f36361" y="291.204723"/>
    </g>
    <g clip-path="url(#pfb926c7685)">
     <use style="fill:#1a1a1a;" x="296.277139" xlink:href="#C1_0_6470f36361" y="297.691749"/>
    </g>
    <g clip-path="url(#pfb926c7685)">
     <use style="fill:#1a1a1a;" x="278.602547" xlink:href="#C1_0_6470f36361" y="289.327964"/>
    </g>
    <g clip-path="url(#pfb926c7685)">
     <use style="fill:#1a1a1a;" x="244.87829" xlink:href="#C1_0_6470f36361" y="293.655414"/>
    </g>
    <g clip-path="url(#pfb926c7685)">
     <use style="fill:#1a1a1a;" x="311.610672" xlink:href="#C1_0_6470f36361" y="279.830148"/>
    </g>
    <g clip-path="url(#pfb926c7685)">
     <use style="fill:#1a1a1a;" x="242.296508" xlink:href="#C1_0_6470f36361" y="292.921123"/>
    </g>
    <g clip-path="url(#pfb926c7685)">
     <use style="fill:#1a1a1a;" x="241.061535" xlink:href="#C1_0_6470f36361" y="297.202367"/>
    </g>
    <g clip-path="url(#pfb926c7685)">
     <use style="fill:#1a1a1a;" x="290.016862" xlink:href="#C1_0_6470f36361" y="294.899987"/>
    </g>
    <g clip-path="url(#pfb926c7685)">
     <use style="fill:#1a1a1a;" x="284.140944" xlink:href="#C1_0_6470f36361" y="292.125741"/>
    </g>
    <g clip-path="url(#pfb926c7685)">
     <use style="fill:#1a1a1a;" x="243.167676" xlink:href="#C1_0_6470f36361" y="289.806729"/>
    </g>
    <g clip-path="url(#pfb926c7685)">
     <use style="fill:#1a1a1a;" x="239.346088" xlink:href="#C1_0_6470f36361" y="282.109262"/>
    </g>
    <g clip-path="url(#pfb926c7685)">
     <use style="fill:#1a1a1a;" x="279.970255" xlink:href="#C1_0_6470f36361" y="273.548223"/>
    </g>
   </g>
  </g>
 </g>
 <defs>
  <clipPath id="pfb926c7685">
   <rect height="295.38" width="287.04375" x="55.67625" y="17.28"/>
  </clipPath>
 </defs>
</svg>
